<svg  style="overflow:visible" width="68" height="68" viewBox="0 0 68 68" fill="none" xmlns="http://www.w3.org/2000/svg">
<g id="&#231;&#148;&#159;&#231;&#137;&#169;&#229;&#136;&#182;&#232;&#141;&#175;&#232;&#161;&#140;&#228;&#184;&#154;">
<g class="icon-wrapper">

<g id="Ellipse 55" filter="url(#filter0_b_1801_2223)" >
<circle cx="34" cy="33.9994" r="24.64" fill="url(#paint0_radial_1801_2223)" fill-opacity="0.6"/>
</g>
<g id="Ellipse 56" style="mix-blend-mode:screen" filter="url(#filter1_f_1801_2223)">
<circle cx="34" cy="34" r="27.5" stroke="#79FFFF"/>
</g>
<circle id="Ellipse 57" cx="34" cy="34" r="27.75" stroke="#79FFFF" stroke-width="0.5"/>
</g>
<g id="&#233;&#141;&#165;&#230;&#131;&#167;&#231;&#156;&#176;_1" clip-path="url(#clip0_1801_2223)">
<g id="Group 7" style="mix-blend-mode:screen" filter="url(#filter2_f_1801_2223)">
<path id="Vector" d="M30.33 34.7598C29.81 33.8598 29.33 32.9498 28.89 32.1098C29.75 32.5298 30.68 33.1098 31.53 33.5598C34.22 35.1198 36.77 36.5598 38.07 35.3098L40.28 33.0998C41.43 31.7698 39.99 29.2898 38.46 26.6498C37.94 25.7598 37.41 24.8398 37.01 24.0098C37.87 24.4198 38.81 25.0098 39.66 25.4498C42.35 27.0198 44.9 28.4498 46.2 27.1998C47.5 25.9498 46.12 23.2398 44.56 20.5398L44.39 20.2598C44.3249 20.1446 44.2167 20.0599 44.0892 20.0243C43.9618 19.9887 43.8254 20.0051 43.71 20.0698C43.5958 20.1385 43.513 20.2492 43.4793 20.3782C43.4457 20.5071 43.4639 20.6441 43.53 20.7598L43.69 21.0398C44.19 21.8998 44.69 22.8298 45.14 23.6898C44.3 23.2898 43.39 22.7598 42.49 22.2398C39.79 20.6698 37.25 19.2398 35.95 20.4998L33.72 22.7298C32.47 24.0298 33.9 26.5398 35.47 29.2698C35.96 30.1198 36.47 31.0498 36.91 31.9098C36.08 31.5098 35.16 30.9898 34.26 30.4698C31.57 28.8998 29.02 27.4198 27.72 28.7198L25.47 30.9498C24.17 32.2498 25.65 34.7998 27.22 37.4898C27.72 38.3398 28.22 39.2798 28.67 40.1398C27.83 39.7398 26.92 39.2198 26.02 38.6898C23.32 37.1298 20.78 35.6898 19.48 36.9498C18.18 38.2098 19.65 40.7998 21.22 43.4898L21.49 43.9498C21.5336 44.0254 21.5963 44.0882 21.6717 44.1321C21.7471 44.176 21.8327 44.1993 21.92 44.1998C22.0068 44.1991 22.0923 44.1786 22.17 44.1398C22.2842 44.0711 22.367 43.9605 22.4006 43.8315C22.4343 43.7026 22.4161 43.5656 22.35 43.4498L22.08 42.9898C21.59 42.1398 21.08 41.1998 20.64 40.3298C21.47 40.7298 22.39 41.2598 23.29 41.7798C25.29 42.9298 27.15 44.0298 28.53 44.0298C28.7693 44.0393 29.008 43.9999 29.2315 43.9139C29.4551 43.8279 29.6587 43.6972 29.83 43.5298L32.16 41.1998C32.1959 41.1629 32.2232 41.1185 32.24 41.0698C33.21 39.7198 31.81 37.3098 30.33 34.7598ZM41.99 23.1098C43.1641 23.8312 44.3909 24.4629 45.66 24.9998C45.84 25.6098 45.86 26.0998 45.59 26.3698C44.84 27.1298 42.3 25.6498 40.26 24.4698C38.8213 23.5045 37.2429 22.7659 35.58 22.2798L36.66 21.1998C37.41 20.4498 39.95 21.9198 41.99 23.1098ZM34.47 23.4298C34.73 23.1698 35.23 23.1898 35.84 23.3698C36.3788 24.638 37.0105 25.8647 37.73 27.0398C38.91 29.0398 40.37 31.5898 39.64 32.3498L38.52 33.4398C38.0295 31.7786 37.2912 30.2008 36.33 28.7598C35.14 26.7298 33.67 24.1898 34.47 23.4298ZM33.8 31.3298C34.972 32.0548 36.1991 32.6867 37.47 33.2198C37.64 33.8298 37.66 34.3298 37.4 34.5998C36.64 35.3498 34.1 33.8798 32.07 32.6898C30.6144 31.7386 29.023 31.0137 27.35 30.5398L28.47 29.4298C29.18 28.6698 31.72 30.1498 33.76 31.3298H33.8ZM26.24 31.6598C26.51 31.3898 27 31.4098 27.62 31.5898C28.1359 32.8614 28.7546 34.0888 29.47 35.2598C30.65 37.2598 32.13 39.8398 31.37 40.5898L30.29 41.6698C29.8039 40.0069 29.0653 38.4285 28.1 36.9898C26.92 34.9498 25.47 32.4098 26.2 31.6598H26.24ZM23.85 40.9198C22.6769 40.1906 21.4461 39.5584 20.17 39.0298C20 38.4198 19.98 37.9198 20.24 37.6598C21 36.8998 23.54 38.3698 25.58 39.5598C26.7519 40.2851 27.979 40.917 29.25 41.4498C29.43 42.0598 29.45 42.5598 29.18 42.8198C28.39 43.5398 25.85 42.0998 23.81 40.9198H23.85Z" fill="#B9F9E8"/>
<path id="Vector_2" d="M48.54 34.8093C47.8774 34.1842 47.0009 33.8359 46.09 33.8359C45.179 33.8359 44.3025 34.1842 43.64 34.8093L41.94 36.5393C41.8458 36.6335 41.7929 36.7612 41.7929 36.8943C41.7929 37.0275 41.8458 37.1552 41.94 37.2493C42.0341 37.3435 42.1618 37.3964 42.295 37.3964C42.4281 37.3964 42.5558 37.3435 42.65 37.2493L44.35 35.5493C44.8188 35.1019 45.4419 34.8522 46.09 34.8522C46.738 34.8522 47.3612 35.1019 47.83 35.5493C48.0586 35.7778 48.2399 36.049 48.3636 36.3476C48.4873 36.6461 48.551 36.9661 48.551 37.2893C48.551 37.6125 48.4873 37.9325 48.3636 38.2311C48.2399 38.5296 48.0586 38.8009 47.83 39.0293L44.9 41.9593L41.47 38.4693C41.3764 38.3694 41.2634 38.2898 41.1378 38.2353C41.0122 38.1809 40.8768 38.1528 40.74 38.1528C40.6031 38.1528 40.4677 38.1809 40.3421 38.2353C40.2166 38.2898 40.1035 38.3694 40.01 38.4693L37.11 41.3693C36.4602 42.0191 36.0952 42.9004 36.0952 43.8193C36.0952 44.7382 36.4602 45.6195 37.11 46.2693C37.7598 46.9191 38.641 47.2841 39.56 47.2841C40.4789 47.2841 41.3602 46.9191 42.01 46.2693L48.57 39.7093C49.2161 39.0576 49.5786 38.177 49.5786 37.2593C49.5786 36.3416 49.2161 35.4611 48.57 34.8093H48.54ZM41.27 45.5393C40.8012 45.9868 40.178 46.2365 39.53 46.2365C38.8819 46.2365 38.2588 45.9868 37.79 45.5393C37.5614 45.3109 37.3801 45.0396 37.2563 44.7411C37.1326 44.4425 37.0689 44.1225 37.0689 43.7993C37.0689 43.4761 37.1326 43.1561 37.2563 42.8576C37.3801 42.559 37.5614 42.2878 37.79 42.0593L40.79 39.1593L44.25 42.6093L41.27 45.5393Z" fill="#B9F9E8"/>
</g>
<g id="Group 8">
<path id="Vector_3" d="M30.33 34.7598C29.81 33.8598 29.33 32.9498 28.89 32.1098C29.75 32.5298 30.68 33.1098 31.53 33.5598C34.22 35.1198 36.77 36.5598 38.07 35.3098L40.28 33.0998C41.43 31.7698 39.99 29.2898 38.46 26.6498C37.94 25.7598 37.41 24.8398 37.01 24.0098C37.87 24.4198 38.81 25.0098 39.66 25.4498C42.35 27.0198 44.9 28.4498 46.2 27.1998C47.5 25.9498 46.12 23.2398 44.56 20.5398L44.39 20.2598C44.3249 20.1446 44.2167 20.0599 44.0892 20.0243C43.9618 19.9887 43.8254 20.0051 43.71 20.0698C43.5958 20.1385 43.513 20.2492 43.4793 20.3782C43.4457 20.5071 43.4639 20.6441 43.53 20.7598L43.69 21.0398C44.19 21.8998 44.69 22.8298 45.14 23.6898C44.3 23.2898 43.39 22.7598 42.49 22.2398C39.79 20.6698 37.25 19.2398 35.95 20.4998L33.72 22.7298C32.47 24.0298 33.9 26.5398 35.47 29.2698C35.96 30.1198 36.47 31.0498 36.91 31.9098C36.08 31.5098 35.16 30.9898 34.26 30.4698C31.57 28.8998 29.02 27.4198 27.72 28.7198L25.47 30.9498C24.17 32.2498 25.65 34.7998 27.22 37.4898C27.72 38.3398 28.22 39.2798 28.67 40.1398C27.83 39.7398 26.92 39.2198 26.02 38.6898C23.32 37.1298 20.78 35.6898 19.48 36.9498C18.18 38.2098 19.65 40.7998 21.22 43.4898L21.49 43.9498C21.5336 44.0254 21.5963 44.0882 21.6717 44.1321C21.7471 44.176 21.8327 44.1993 21.92 44.1998C22.0068 44.1991 22.0923 44.1786 22.17 44.1398C22.2842 44.0711 22.367 43.9605 22.4006 43.8315C22.4343 43.7026 22.4161 43.5656 22.35 43.4498L22.08 42.9898C21.59 42.1398 21.08 41.1998 20.64 40.3298C21.47 40.7298 22.39 41.2598 23.29 41.7798C25.29 42.9298 27.15 44.0298 28.53 44.0298C28.7693 44.0393 29.008 43.9999 29.2315 43.9139C29.4551 43.8279 29.6587 43.6972 29.83 43.5298L32.16 41.1998C32.1959 41.1629 32.2232 41.1185 32.24 41.0698C33.21 39.7198 31.81 37.3098 30.33 34.7598ZM41.99 23.1098C43.1641 23.8312 44.3909 24.4629 45.66 24.9998C45.84 25.6098 45.86 26.0998 45.59 26.3698C44.84 27.1298 42.3 25.6498 40.26 24.4698C38.8213 23.5045 37.2429 22.7659 35.58 22.2798L36.66 21.1998C37.41 20.4498 39.95 21.9198 41.99 23.1098ZM34.47 23.4298C34.73 23.1698 35.23 23.1898 35.84 23.3698C36.3788 24.638 37.0105 25.8647 37.73 27.0398C38.91 29.0398 40.37 31.5898 39.64 32.3498L38.52 33.4398C38.0295 31.7786 37.2912 30.2008 36.33 28.7598C35.14 26.7298 33.67 24.1898 34.47 23.4298ZM33.8 31.3298C34.972 32.0548 36.1991 32.6867 37.47 33.2198C37.64 33.8298 37.66 34.3298 37.4 34.5998C36.64 35.3498 34.1 33.8798 32.07 32.6898C30.6144 31.7386 29.023 31.0137 27.35 30.5398L28.47 29.4298C29.18 28.6698 31.72 30.1498 33.76 31.3298H33.8ZM26.24 31.6598C26.51 31.3898 27 31.4098 27.62 31.5898C28.1359 32.8614 28.7546 34.0888 29.47 35.2598C30.65 37.2598 32.13 39.8398 31.37 40.5898L30.29 41.6698C29.8039 40.0069 29.0653 38.4285 28.1 36.9898C26.92 34.9498 25.47 32.4098 26.2 31.6598H26.24ZM23.85 40.9198C22.6769 40.1906 21.4461 39.5584 20.17 39.0298C20 38.4198 19.98 37.9198 20.24 37.6598C21 36.8998 23.54 38.3698 25.58 39.5598C26.7519 40.2851 27.979 40.917 29.25 41.4498C29.43 42.0598 29.45 42.5598 29.18 42.8198C28.39 43.5398 25.85 42.0998 23.81 40.9198H23.85Z" fill="#C2FEFE"/>
<path id="Vector_4" d="M48.54 34.8093C47.8774 34.1842 47.0009 33.8359 46.09 33.8359C45.179 33.8359 44.3025 34.1842 43.64 34.8093L41.94 36.5393C41.8458 36.6335 41.7929 36.7612 41.7929 36.8943C41.7929 37.0275 41.8458 37.1552 41.94 37.2493C42.0341 37.3435 42.1618 37.3964 42.295 37.3964C42.4281 37.3964 42.5558 37.3435 42.65 37.2493L44.35 35.5493C44.8188 35.1019 45.4419 34.8522 46.09 34.8522C46.738 34.8522 47.3612 35.1019 47.83 35.5493C48.0586 35.7778 48.2399 36.049 48.3636 36.3476C48.4873 36.6461 48.551 36.9661 48.551 37.2893C48.551 37.6125 48.4873 37.9325 48.3636 38.2311C48.2399 38.5296 48.0586 38.8009 47.83 39.0293L44.9 41.9593L41.47 38.4693C41.3764 38.3694 41.2634 38.2898 41.1378 38.2353C41.0122 38.1809 40.8768 38.1528 40.74 38.1528C40.6031 38.1528 40.4677 38.1809 40.3421 38.2353C40.2166 38.2898 40.1035 38.3694 40.01 38.4693L37.11 41.3693C36.4602 42.0191 36.0952 42.9004 36.0952 43.8193C36.0952 44.7382 36.4602 45.6195 37.11 46.2693C37.7598 46.9191 38.641 47.2841 39.56 47.2841C40.4789 47.2841 41.3602 46.9191 42.01 46.2693L48.57 39.7093C49.2161 39.0576 49.5786 38.177 49.5786 37.2593C49.5786 36.3416 49.2161 35.4611 48.57 34.8093H48.54ZM41.27 45.5393C40.8012 45.9868 40.178 46.2365 39.53 46.2365C38.8819 46.2365 38.2588 45.9868 37.79 45.5393C37.5614 45.3109 37.3801 45.0396 37.2563 44.7411C37.1326 44.4425 37.0689 44.1225 37.0689 43.7993C37.0689 43.4761 37.1326 43.1561 37.2563 42.8576C37.3801 42.559 37.5614 42.2878 37.79 42.0593L40.79 39.1593L44.25 42.6093L41.27 45.5393Z" fill="#C2FEFE"/>
</g>
</g>
</g>
<defs>
<filter id="filter0_b_1801_2223" x="3.35999" y="3.35938" width="61.28" height="61.2793" filterUnits="userSpaceOnUse" color-interpolation-filters="sRGB">
<feFlood flood-opacity="0" result="BackgroundImageFix"/>
<feGaussianBlur in="BackgroundImageFix" stdDeviation="3"/>
<feComposite in2="SourceAlpha" operator="in" result="effect1_backgroundBlur_1801_2223"/>
<feBlend mode="normal" in="SourceGraphic" in2="effect1_backgroundBlur_1801_2223" result="shape"/>
</filter>
<filter id="filter1_f_1801_2223" x="0" y="0" width="68" height="68" filterUnits="userSpaceOnUse" color-interpolation-filters="sRGB">
<feFlood flood-opacity="0" result="BackgroundImageFix"/>
<feBlend mode="normal" in="SourceGraphic" in2="BackgroundImageFix" result="shape"/>
<feGaussianBlur stdDeviation="3" result="effect1_foregroundBlur_1801_2223"/>
</filter>
<filter id="filter2_f_1801_2223" x="14.9802" y="16.0059" width="38.5983" height="35.2773" filterUnits="userSpaceOnUse" color-interpolation-filters="sRGB">
<feFlood flood-opacity="0" result="BackgroundImageFix"/>
<feBlend mode="normal" in="SourceGraphic" in2="BackgroundImageFix" result="shape"/>
<feGaussianBlur stdDeviation="2" result="effect1_foregroundBlur_1801_2223"/>
</filter>
<radialGradient id="paint0_radial_1801_2223" cx="0" cy="0" r="1" gradientUnits="userSpaceOnUse" gradientTransform="translate(34 33.9994) rotate(90) scale(24.64)">
<stop offset="0.666667" stop-opacity="0"/>
<stop offset="1" stop-color="#79FFFF" stop-opacity="0.7"/>
<stop offset="1" stop-color="#79FFFF" stop-opacity="0.3"/>
</radialGradient>
<clipPath id="clip0_1801_2223">
<rect width="30.55" height="27.28" fill="white" transform="translate(19 20)"/>
</clipPath>
</defs>
</svg>
