<svg  style="overflow:visible" width="56" height="56" viewBox="0 0 56 56" fill="none" xmlns="http://www.w3.org/2000/svg">
<g id="&#233;&#128;&#154;&#228;&#191;&#161;&#232;&#161;&#140;&#228;&#184;&#154;">

<g class="icon-wrapper">

<g id="Ellipse 55" filter="url(#filter0_b_1801_2234)" class="icon-wrapper">
<circle cx="28" cy="28" r="25" fill="url(#paint0_radial_1801_2234)"/>
</g>
<circle id="Ellipse 56" cx="28" cy="28" r="27.5" stroke="#0173FE"/>
</g>
<g id="&#233;&#141;&#165;&#230;&#131;&#167;&#231;&#156;&#176;_1" clip-path="url(#clip0_1801_2234)">
<g id="blur" style="mix-blend-mode:color-dodge" filter="url(#filter1_f_1801_2234)">
<path d="M38.4322 43.3308L33.7825 33.5325C36.2077 32.2285 38.1313 30.1437 39.2474 27.6095C40.3635 25.0754 40.608 22.2375 39.9421 19.5469C39.2761 16.8564 37.738 14.4678 35.5722 12.761C33.4064 11.0541 30.7373 10.127 27.9893 10.127C25.2413 10.127 22.5722 11.0541 20.4064 12.761C18.2407 14.4678 16.7025 16.8564 16.0366 19.5469C15.3706 22.2375 15.6151 25.0754 16.7312 27.6095C17.8473 30.1437 19.7709 32.2285 22.1961 33.5325L16.5324 45.4429L17.5033 45.9111L18.2908 44.2345H37.7094L38.5077 45.922L39.4894 45.4538L38.6156 43.6139C38.5838 43.5032 38.52 43.4046 38.4322 43.3308ZM29.3918 24.2024C29.7269 23.9131 29.9662 23.5271 30.0773 23.0963C30.1885 22.6656 30.1661 22.2109 30.0133 21.7933C29.8605 21.3758 29.5846 21.0156 29.2227 20.7611C28.8608 20.5067 28.4304 20.3703 27.9893 20.3703C27.5483 20.3703 27.1178 20.5067 26.7559 20.7611C26.3941 21.0156 26.1181 21.3758 25.9653 21.7933C25.8125 22.2109 25.7902 22.6656 25.9013 23.0963C26.0124 23.5271 26.2517 23.9131 26.5869 24.2024L25.5728 26.3798C24.7581 25.8527 24.1347 25.0734 23.7958 24.1586C23.4569 23.2439 23.4208 22.2429 23.693 21.3057C23.9651 20.3686 24.5308 19.5456 25.3054 18.9601C26.0799 18.3747 27.0216 18.0583 27.9893 18.0583C28.957 18.0583 29.8987 18.3747 30.6733 18.9601C31.4478 19.5456 32.0135 20.3686 32.2857 21.3057C32.5578 22.2429 32.5218 23.2439 32.1829 24.1586C31.844 25.0734 31.2205 25.8527 30.4059 26.3798L29.3918 24.2024ZM27.6549 24.4637H28.3345L30.1577 28.3068L28.0001 29.2975L25.8425 28.2959L27.6549 24.4637ZM31.161 31.9539L28.0001 33.3039L24.8392 31.9539L28.0001 30.4951L31.161 31.9539ZM29.2947 29.8963L30.6108 29.2975L31.3336 30.8435L29.2947 29.8963ZM30.8697 27.3161C31.9101 26.6812 32.7159 25.7201 33.164 24.5796C33.6121 23.4391 33.678 22.1819 33.3514 21.0001C33.0249 19.8182 32.3239 18.7768 31.3557 18.0348C30.3874 17.2929 29.2051 16.8912 27.9893 16.8912C26.7736 16.8912 25.5912 17.2929 24.623 18.0348C23.6547 18.7768 22.9538 19.8182 22.6272 21.0001C22.3007 22.1819 22.3665 23.4391 22.8146 24.5796C23.2628 25.7201 24.0686 26.6812 25.1089 27.3161L24.2674 29.1124C22.8163 28.283 21.6782 26.9921 21.0305 25.4412C20.3828 23.8903 20.262 22.1667 20.687 20.5393C21.112 18.9119 22.0589 17.4722 23.3798 16.4449C24.7008 15.4176 26.3216 14.8605 27.9893 14.8605C29.657 14.8605 31.2778 15.4176 32.5988 16.4449C33.9198 17.4722 34.8666 18.9119 35.2916 20.5393C35.7166 22.1667 35.5959 23.8903 34.9482 25.4412C34.3005 26.9921 33.1623 28.283 31.7112 29.1124L30.8697 27.3161ZM25.3678 29.2866L26.7055 29.8963L24.6234 30.8543L25.3678 29.2866ZM23.7604 32.6834L26.6192 33.9027L22.304 35.7317L23.7604 32.6834ZM28.0001 34.4906L33.3942 36.7333L28.054 38.9107L22.7139 36.7333L28.0001 34.4906ZM29.381 33.9027L32.2075 32.6943L33.6423 35.7208L29.381 33.9027ZM16.7589 22.5149C16.7541 20.5071 17.2774 18.534 18.2754 16.797C19.2734 15.0601 20.7103 13.6215 22.4394 12.6283C24.1685 11.6351 26.1278 11.1228 28.1173 11.1437C30.1067 11.1647 32.055 11.7181 33.7633 12.7474C35.4715 13.7768 36.8783 15.2453 37.8402 17.0029C38.8021 18.7604 39.2845 20.7441 39.2382 22.7514C39.1919 24.7587 38.6185 26.7176 37.5766 28.4281C36.5347 30.1386 35.0617 31.5394 33.3078 32.4874L32.995 31.8124C32.9786 31.7543 32.9531 31.6991 32.9195 31.6491L32.1751 30.0814C33.8477 29.1453 35.1648 27.675 35.9195 25.9015C36.6742 24.1279 36.8237 22.1517 36.3447 20.2831C35.8656 18.4145 34.785 16.7594 33.2727 15.5778C31.7603 14.3962 29.9019 13.7551 27.9893 13.7551C26.0767 13.7551 24.2183 14.3962 22.706 15.5778C21.1936 16.7594 20.1131 18.4145 19.634 20.2831C19.1549 22.1517 19.3045 24.1279 20.0592 25.9015C20.8139 27.675 22.1309 29.1453 23.8035 30.0814L22.6708 32.4874C20.8897 31.513 19.4011 30.0731 18.361 28.3185C17.3209 26.564 16.7675 24.5594 16.7589 22.5149ZM21.5273 37.4736L26.5977 39.5531L19.046 42.6559L21.5273 37.4736ZM20.7397 43.1458L28.0001 40.141L35.2821 43.1458H20.7397ZM29.4457 39.5531L34.473 37.4736L36.9111 42.6341L29.4457 39.5531Z" fill="#007DFF"/>
</g>
<g id="origin" filter="url(#filter2_d_1801_2234)">
<path d="M38.4429 43.3308L33.7932 33.5325C36.2184 32.2285 38.142 30.1437 39.2581 27.6095C40.3742 25.0754 40.6187 22.2375 39.9528 19.5469C39.2868 16.8564 37.7487 14.4678 35.5829 12.761C33.4171 11.0541 30.748 10.127 28 10.127C25.252 10.127 22.5829 11.0541 20.4171 12.761C18.2513 14.4678 16.7132 16.8564 16.0472 19.5469C15.3813 22.2375 15.6258 25.0754 16.7419 27.6095C17.858 30.1437 19.7816 32.2285 22.2068 33.5325L16.543 45.4429L17.514 45.9111L18.3015 44.2345H37.7201L38.5184 45.922L39.5001 45.4538L38.6263 43.6139C38.5945 43.5032 38.5306 43.4046 38.4429 43.3308ZM29.4025 24.2024C29.7376 23.9131 29.9769 23.5271 30.088 23.0963C30.1991 22.6656 30.1768 22.2109 30.024 21.7933C29.8712 21.3758 29.5953 21.0156 29.2334 20.7611C28.8715 20.5067 28.441 20.3703 28 20.3703C27.559 20.3703 27.1285 20.5067 26.7666 20.7611C26.4047 21.0156 26.1288 21.3758 25.976 21.7933C25.8232 22.2109 25.8009 22.6656 25.912 23.0963C26.0231 23.5271 26.2624 23.9131 26.5975 24.2024L25.5835 26.3798C24.7688 25.8527 24.1454 25.0734 23.8065 24.1586C23.4676 23.2439 23.4315 22.2429 23.7036 21.3057C23.9758 20.3686 24.5415 19.5456 25.3161 18.9601C26.0906 18.3747 27.0323 18.0583 28 18.0583C28.9677 18.0583 29.9094 18.3747 30.6839 18.9601C31.4585 19.5456 32.0242 20.3686 32.2964 21.3057C32.5685 22.2429 32.5324 23.2439 32.1935 24.1586C31.8547 25.0734 31.2312 25.8527 30.4165 26.3798L29.4025 24.2024ZM27.6656 24.4637H28.3452L30.1684 28.3068L28.0108 29.2975L25.8532 28.2959L27.6656 24.4637ZM31.1717 31.9539L28.0108 33.3039L24.8499 31.9539L28.0108 30.4951L31.1717 31.9539ZM29.3054 29.8963L30.6215 29.2975L31.3443 30.8435L29.3054 29.8963ZM30.8804 27.3161C31.9208 26.6812 32.7266 25.7201 33.1747 24.5796C33.6228 23.4391 33.6886 22.1819 33.3621 21.0001C33.0356 19.8182 32.3346 18.7768 31.3664 18.0348C30.3981 17.2929 29.2158 16.8912 28 16.8912C26.7842 16.8912 25.6019 17.2929 24.6336 18.0348C23.6654 18.7768 22.9644 19.8182 22.6379 21.0001C22.3114 22.1819 22.3772 23.4391 22.8253 24.5796C23.2734 25.7201 24.0792 26.6812 25.1196 27.3161L24.2781 29.1124C22.827 28.283 21.6888 26.9921 21.0411 25.4412C20.3934 23.8903 20.2727 22.1667 20.6977 20.5393C21.1227 18.9119 22.0695 17.4722 23.3905 16.4449C24.7115 15.4176 26.3323 14.8605 28 14.8605C29.6677 14.8605 31.2885 15.4176 32.6095 16.4449C33.9305 17.4722 34.8773 18.9119 35.3023 20.5393C35.7273 22.1667 35.6066 23.8903 34.9589 25.4412C34.3112 26.9921 33.173 28.283 31.7219 29.1124L30.8804 27.3161ZM25.3785 29.2866L26.7162 29.8963L24.6341 30.8543L25.3785 29.2866ZM23.7711 32.6834L26.6299 33.9027L22.3147 35.7317L23.7711 32.6834ZM28.0108 34.4906L33.4048 36.7333L28.0647 38.9107L22.7246 36.7333L28.0108 34.4906ZM29.3917 33.9027L32.2181 32.6943L33.653 35.7208L29.3917 33.9027ZM16.7696 22.5149C16.7648 20.5071 17.2881 18.534 18.286 16.797C19.284 15.0601 20.7209 13.6215 22.45 12.6283C24.1791 11.6351 26.1385 11.1228 28.1279 11.1437C30.1174 11.1647 32.0657 11.7181 33.7739 12.7474C35.4821 13.7768 36.889 15.2453 37.8509 17.0029C38.8128 18.7604 39.2952 20.7441 39.2489 22.7514C39.2026 24.7587 38.6292 26.7176 37.5873 28.4281C36.5454 30.1386 35.0724 31.5394 33.3185 32.4874L33.0057 31.8124C32.9893 31.7543 32.9638 31.6991 32.9302 31.6491L32.1858 30.0814C33.8584 29.1453 35.1755 27.675 35.9302 25.9015C36.6849 24.1279 36.8344 22.1517 36.3553 20.2831C35.8763 18.4145 34.7957 16.7594 33.2834 15.5778C31.771 14.3962 29.9126 13.7551 28 13.7551C26.0874 13.7551 24.229 14.3962 22.7166 15.5778C21.2043 16.7594 20.1237 18.4145 19.6447 20.2831C19.1656 22.1517 19.3151 24.1279 20.0698 25.9015C20.8245 27.675 22.1416 29.1453 23.8142 30.0814L22.6815 32.4874C20.9004 31.513 19.4118 30.0731 18.3717 28.3185C17.3316 26.564 16.7782 24.5594 16.7696 22.5149ZM21.5379 37.4736L26.6083 39.5531L19.0567 42.6559L21.5379 37.4736ZM20.7504 43.1458L28.0108 40.141L35.2928 43.1458H20.7504ZM29.4564 39.5531L34.4836 37.4736L36.9218 42.6341L29.4564 39.5531Z" fill="#B6CEEC"/>
</g>
</g>
</g>
<defs>
<filter id="filter0_b_1801_2234" x="-1" y="-1" width="58" height="58" filterUnits="userSpaceOnUse" color-interpolation-filters="sRGB">
<feFlood flood-opacity="0" result="BackgroundImageFix"/>
<feGaussianBlur in="BackgroundImageFix" stdDeviation="2"/>
<feComposite in2="SourceAlpha" operator="in" result="effect1_backgroundBlur_1801_2234"/>
<feBlend mode="normal" in="SourceGraphic" in2="effect1_backgroundBlur_1801_2234" result="shape"/>
</filter>
<filter id="filter1_f_1801_2234" x="11.6693" y="6.12695" width="32.64" height="43.7949" filterUnits="userSpaceOnUse" color-interpolation-filters="sRGB">
<feFlood flood-opacity="0" result="BackgroundImageFix"/>
<feBlend mode="normal" in="SourceGraphic" in2="BackgroundImageFix" result="shape"/>
<feGaussianBlur stdDeviation="2" result="effect1_foregroundBlur_1801_2234"/>
</filter>
<filter id="filter2_d_1801_2234" x="-0.320007" y="-5.87305" width="56.64" height="67.7949" filterUnits="userSpaceOnUse" color-interpolation-filters="sRGB">
<feFlood flood-opacity="0" result="BackgroundImageFix"/>
<feColorMatrix in="SourceAlpha" type="matrix" values="0 0 0 0 0 0 0 0 0 0 0 0 0 0 0 0 0 0 127 0" result="hardAlpha"/>
<feOffset/>
<feGaussianBlur stdDeviation="8"/>
<feComposite in2="hardAlpha" operator="out"/>
<feColorMatrix type="matrix" values="0 0 0 0 0.00392157 0 0 0 0 0.45098 0 0 0 0 0.996078 0 0 0 1 0"/>
<feBlend mode="normal" in2="BackgroundImageFix" result="effect1_dropShadow_1801_2234"/>
<feBlend mode="normal" in="SourceGraphic" in2="effect1_dropShadow_1801_2234" result="shape"/>
</filter>
<radialGradient id="paint0_radial_1801_2234" cx="0" cy="0" r="1" gradientUnits="userSpaceOnUse" gradientTransform="translate(28 28) rotate(90) scale(25)">
<stop offset="0.75" stop-color="#0173FE" stop-opacity="0"/>
<stop offset="1" stop-color="#0173FE" stop-opacity="0.7"/>
</radialGradient>
<clipPath id="clip0_1801_2234">
<rect width="24.64" height="35.84" fill="white" transform="translate(15.68 10.0801)"/>
</clipPath>
</defs>
</svg>
