<svg  style="overflow:visible" width="56" height="56" viewBox="0 0 56 56" fill="none" xmlns="http://www.w3.org/2000/svg">
<g id="&#231;&#148;&#181;&#229;&#138;&#155;&#232;&#161;&#140;&#228;&#184;&#154;">
<g id="Group 4"  class="icon-wrapper">
<g id="Ellipse 55" filter="url(#filter0_b_1801_2307)">
<circle cx="28" cy="28" r="25" fill="url(#paint0_radial_1801_2307)" fill-opacity="0.6"/>
<circle cx="28" cy="28" r="24.85" stroke="#40F19C" stroke-width="0.3"/>
</g>
<circle id="Ellipse 56" cx="28" cy="28" r="27.5" stroke="#40F19C"/>
</g>
<g id="&#233;&#141;&#165;&#230;&#131;&#167;&#231;&#156;&#176;_1" clip-path="url(#clip0_1801_2307)">
<g id="Vector" style="mix-blend-mode:screen" filter="url(#filter1_f_1801_2307)">
<path d="M36.3041 23.3771H31.8531V18.374H37.8335V20.5453C37.8335 20.678 37.8852 20.8053 37.9771 20.8991C38.069 20.9929 38.1937 21.0457 38.3237 21.0457C38.453 21.0431 38.5762 20.9896 38.6676 20.8963C38.759 20.803 38.8114 20.6772 38.8139 20.5453V17.7136L34.108 12H21.1669L17.2453 17.7436V20.5754C17.2453 20.7081 17.2969 20.8353 17.3889 20.9291C17.4808 21.023 17.6055 21.0757 17.7355 21.0757C17.8655 21.0757 17.9902 21.023 18.0821 20.9291C18.1741 20.8353 18.2257 20.7081 18.2257 20.5754V18.404H24.2061V23.4071H18.9316L15.01 29.1407V32.6429C15.01 32.7756 15.0617 32.9029 15.1536 32.9967C15.2455 33.0905 15.3702 33.1432 15.5002 33.1432C15.6302 33.1432 15.7549 33.0905 15.8468 32.9967C15.9388 32.9029 15.9904 32.7756 15.9904 32.6429V29.7711H24.108L21.9512 42.9994H16.9512C16.8212 42.9994 16.6965 43.0521 16.6046 43.1459C16.5126 43.2397 16.461 43.367 16.461 43.4997C16.461 43.6324 16.5126 43.7596 16.6046 43.8535C16.6965 43.9473 16.8212 44 16.9512 44H39.108C39.2381 44 39.3627 43.9473 39.4547 43.8535C39.5466 43.7596 39.5982 43.6324 39.5982 43.4997C39.5982 43.367 39.5466 43.2397 39.4547 43.1459C39.3627 43.0521 39.2381 42.9994 39.108 42.9994H34.1375L31.9512 29.7711H40.0296V32.6429C40.0296 32.7756 40.0813 32.9029 40.1732 32.9967C40.2651 33.0905 40.3898 33.1432 40.5198 33.1432C40.6498 33.1432 40.7745 33.0905 40.8664 32.9967C40.9584 32.9029 41.01 32.7756 41.01 32.6429V29.0907L36.3041 23.3771ZM35.8433 24.3777L39.461 28.7705H31.8531V24.3777H35.8433ZM25.1473 28.7705V24.3777H30.8826V28.7705H25.1473ZM30.7061 29.7711L28.0296 33.8336L25.4022 29.7711H30.7061ZM26.0688 23.3771L30.8728 19.0144V23.3771H26.0688ZM37.2257 17.3734H31.8531V12.9706H33.6277L37.2257 17.3734ZM30.8629 17.3734H25.1473V12.9706H30.8728L30.8629 17.3734ZM18.6375 17.3734L21.6473 12.9706H24.1571V17.3734H18.6375ZM30.0688 18.374L25.1669 22.8468V18.404L30.0688 18.374ZM19.4316 24.3777H24.1669V28.7705H16.4218L19.4316 24.3777ZM24.9022 30.7717L27.461 34.7742L23.2061 41.3183L24.9022 30.7717ZM23.2747 42.9994L28.0296 35.6448L32.7845 42.9994H23.2747ZM28.6473 34.7442L31.1375 30.9118L32.8531 41.2483L28.6473 34.7442Z" fill="#B9F9E8"/>
</g>
<path id="Vector_2" d="M36.2941 23.3771H31.8431V18.374H37.8235V20.5453C37.8235 20.678 37.8752 20.8053 37.9671 20.8991C38.059 20.9929 38.1837 21.0457 38.3137 21.0457C38.4429 21.0431 38.5662 20.9896 38.6576 20.8963C38.749 20.803 38.8014 20.6772 38.8039 20.5453V17.7136L34.098 12H21.1569L17.2353 17.7436V20.5754C17.2353 20.7081 17.2869 20.8353 17.3789 20.9291C17.4708 21.023 17.5955 21.0757 17.7255 21.0757C17.8555 21.0757 17.9802 21.023 18.0721 20.9291C18.164 20.8353 18.2157 20.7081 18.2157 20.5754V18.404H24.1961V23.4071H18.9216L15 29.1407V32.6429C15 32.7756 15.0516 32.9029 15.1436 32.9967C15.2355 33.0905 15.3602 33.1432 15.4902 33.1432C15.6202 33.1432 15.7449 33.0905 15.8368 32.9967C15.9287 32.9029 15.9804 32.7756 15.9804 32.6429V29.7711H24.098L21.9412 42.9994H16.9412C16.8112 42.9994 16.6865 43.0521 16.5946 43.1459C16.5026 43.2397 16.451 43.367 16.451 43.4997C16.451 43.6324 16.5026 43.7596 16.5946 43.8535C16.6865 43.9473 16.8112 44 16.9412 44H39.098C39.228 44 39.3527 43.9473 39.4447 43.8535C39.5366 43.7596 39.5882 43.6324 39.5882 43.4997C39.5882 43.367 39.5366 43.2397 39.4447 43.1459C39.3527 43.0521 39.228 42.9994 39.098 42.9994H34.1274L31.9412 29.7711H40.0196V32.6429C40.0196 32.7756 40.0713 32.9029 40.1632 32.9967C40.2551 33.0905 40.3798 33.1432 40.5098 33.1432C40.6398 33.1432 40.7645 33.0905 40.8564 32.9967C40.9484 32.9029 41 32.7756 41 32.6429V29.0907L36.2941 23.3771ZM35.8333 24.3777L39.451 28.7705H31.8431V24.3777H35.8333ZM25.1373 28.7705V24.3777H30.8725V28.7705H25.1373ZM30.6961 29.7711L28.0196 33.8336L25.3922 29.7711H30.6961ZM26.0588 23.3771L30.8627 19.0144V23.3771H26.0588ZM37.2157 17.3734H31.8431V12.9706H33.6176L37.2157 17.3734ZM30.8529 17.3734H25.1373V12.9706H30.8627L30.8529 17.3734ZM18.6275 17.3734L21.6373 12.9706H24.1471V17.3734H18.6275ZM30.0588 18.374L25.1569 22.8468V18.404L30.0588 18.374ZM19.4216 24.3777H24.1569V28.7705H16.4118L19.4216 24.3777ZM24.8922 30.7717L27.451 34.7742L23.1961 41.3183L24.8922 30.7717ZM23.2647 42.9994L28.0196 35.6448L32.7745 42.9994H23.2647ZM28.6373 34.7442L31.1275 30.9118L32.8431 41.2483L28.6373 34.7442Z" fill="#B9F9E8"/>
</g>
</g>
<defs>
<filter id="filter0_b_1801_2307" x="-3" y="-3" width="62" height="62" filterUnits="userSpaceOnUse" color-interpolation-filters="sRGB">
<feFlood flood-opacity="0" result="BackgroundImageFix"/>
<feGaussianBlur in="BackgroundImageFix" stdDeviation="3"/>
<feComposite in2="SourceAlpha" operator="in" result="effect1_backgroundBlur_1801_2307"/>
<feBlend mode="normal" in="SourceGraphic" in2="effect1_backgroundBlur_1801_2307" result="shape"/>
</filter>
<filter id="filter1_f_1801_2307" x="13.01" y="10" width="30" height="36" filterUnits="userSpaceOnUse" color-interpolation-filters="sRGB">
<feFlood flood-opacity="0" result="BackgroundImageFix"/>
<feBlend mode="normal" in="SourceGraphic" in2="BackgroundImageFix" result="shape"/>
<feGaussianBlur stdDeviation="1" result="effect1_foregroundBlur_1801_2307"/>
</filter>
<radialGradient id="paint0_radial_1801_2307" cx="0" cy="0" r="1" gradientUnits="userSpaceOnUse" gradientTransform="translate(28 28) rotate(90) scale(25)">
<stop offset="0.770833" stop-color="#40F19C" stop-opacity="0"/>
<stop offset="1" stop-color="#40F19C" stop-opacity="0.6"/>
</radialGradient>
<clipPath id="clip0_1801_2307">
<rect width="26" height="32" fill="white" transform="translate(15 12)"/>
</clipPath>
</defs>
</svg>
