<svg  style="overflow:visible" width="88" height="88" viewBox="0 0 88 88" fill="none" xmlns="http://www.w3.org/2000/svg">
<g id="&#229;&#164;&#169;&#229;&#183;&#165;&#233;&#135;&#143;&#229;&#173;&#144;&#229;&#164;&#167;&#232;&#132;&#145;">
<g id="Group 6" class="icon-wrapper">
<g id="Ellipse 55" filter="url(#filter0_b_1801_2310)">
<circle cx="44" cy="43.9988" r="35.2" fill="url(#paint0_radial_1801_2310)"/>
<circle cx="44" cy="43.9988" r="35.05" stroke="#EDFFE7" stroke-width="0.3"/>
</g>
<g id="Ellipse 56" style="mix-blend-mode:screen" filter="url(#filter1_f_1801_2310)">
<circle cx="44" cy="44" r="39" stroke="white" stroke-width="2"/>
</g>
<circle id="Ellipse 57" cx="44" cy="44" r="39" stroke="#EDFFE7" stroke-width="2"/>
</g>
<g id="&#233;&#141;&#165;&#230;&#131;&#167;&#231;&#156;&#176;_1" clip-path="url(#clip0_1801_2310)">
<g id="Vector" style="mix-blend-mode:screen" filter="url(#filter2_f_1801_2310)">
<path d="M66.2182 48.1335V42.1166C66.804 41.9411 67.3063 41.5605 67.6326 41.0448C67.9588 40.5292 68.087 39.9133 67.9934 39.3108C67.8999 38.7084 67.5909 38.16 67.1235 37.7668C66.6561 37.3736 66.0618 37.1621 65.4502 37.1714C65.1344 37.1762 64.8221 37.2385 64.5286 37.3551L61.4566 33.4051C61.6773 33.0287 61.7939 32.6008 61.7946 32.1649C61.7974 31.654 61.6448 31.1543 61.3568 30.7317C61.0688 30.309 60.6591 29.9834 60.1816 29.7976C59.7041 29.6119 59.1813 29.5748 58.6823 29.6913C58.1832 29.8078 57.7313 30.0724 57.3862 30.4502L51.8413 27.6484V27.5412C51.8385 26.9404 51.6211 26.3602 51.2278 25.9048C50.8346 25.4494 50.2914 25.1486 49.6958 25.0564C49.1001 24.9642 48.491 25.0867 47.9778 25.4018C47.4645 25.7169 47.0808 26.204 46.8954 26.7757H38.7238C38.5478 26.1919 38.1659 25.6912 37.6486 25.366C37.1312 25.0408 36.5134 24.913 35.909 25.0063C35.3045 25.0996 34.7544 25.4075 34.3599 25.8734C33.9654 26.3393 33.7532 26.9317 33.7626 27.5412C33.7626 27.6331 33.7626 27.7097 33.7626 27.8015L30.2912 29.501C29.8305 29.0903 29.235 28.8616 28.617 28.8579C27.942 28.8619 27.2958 29.131 26.8185 29.6067C26.3412 30.0825 26.0712 30.7266 26.0672 31.3994C26.0694 31.8001 26.1696 32.1943 26.359 32.5477L23.1642 36.6202C22.96 36.5968 22.7539 36.5968 22.5498 36.6202C21.947 36.6229 21.3649 36.8397 20.908 37.2317C20.4511 37.6236 20.1494 38.165 20.0569 38.7588C19.9644 39.3525 20.0872 39.9596 20.4034 40.4712C20.7195 40.9828 21.2082 41.3653 21.7818 41.5501V45.791C21.3838 45.9014 21.0188 46.107 20.7188 46.39C20.4187 46.673 20.1926 47.0249 20.0602 47.4149C19.9277 47.8049 19.8929 48.2213 19.9588 48.6278C20.0247 49.0343 20.1892 49.4186 20.4382 49.7472C20.6871 50.0758 21.0129 50.3388 21.3871 50.5132C21.7613 50.6876 22.1726 50.7682 22.5852 50.748C22.9978 50.7278 23.3992 50.6074 23.7544 50.3972C24.1097 50.187 24.408 49.8934 24.6234 49.542L28.3866 50.1545C28.4515 50.6985 28.6942 51.2062 29.0773 51.5991C29.4603 51.992 29.9625 52.2483 30.5062 52.3285L30.9517 55.3906C30.674 55.6237 30.4504 55.9142 30.2966 56.2421C30.1428 56.5699 30.0623 56.9271 30.0608 57.289C30.0434 57.8327 30.2026 58.3674 30.5146 58.8137C30.8266 59.26 31.2748 59.594 31.7925 59.766C32.3102 59.938 32.8698 59.9388 33.388 59.7684C33.9062 59.598 34.3554 59.2654 34.6688 58.82L39.2768 60.5195C39.3369 61.1575 39.6366 61.7494 40.1159 62.1766C40.5953 62.6037 41.2188 62.8346 41.8616 62.823C42.5045 62.8114 43.1192 62.5581 43.5826 62.1139C44.0461 61.6697 44.3241 61.0674 44.361 60.4276C44.3356 60.0714 44.2365 59.7243 44.07 59.4081C43.9034 59.0919 43.673 58.8135 43.3933 58.5904L45.5898 55.5283L53.8074 58.1311C53.8074 58.8011 54.0744 59.4436 54.5497 59.9174C55.025 60.3911 55.6696 60.6573 56.3418 60.6573C57.0139 60.6573 57.6586 60.3911 58.1339 59.9174C58.6091 59.4436 58.8762 58.8011 58.8762 58.1311C58.8753 57.8811 58.8338 57.6329 58.7533 57.3962L64.2675 52.8031C64.576 52.9837 64.9193 53.0972 65.2748 53.1361C65.6304 53.175 65.9902 53.1385 66.3306 53.0288C66.671 52.9192 66.9843 52.739 67.2498 52.5C67.5153 52.2611 67.7271 51.9688 67.8711 51.6424C68.0152 51.3161 68.0883 50.963 68.0857 50.6064C68.083 50.2499 68.0047 49.8979 67.8558 49.5737C67.707 49.2495 67.4909 48.9604 67.2219 48.7253C66.9529 48.4903 66.637 48.3147 66.295 48.2101L66.2182 48.1335ZM51.0426 48.5469L57.5706 45.0102L63.1616 49.6033C63.1553 49.6695 63.1553 49.7361 63.1616 49.8023L51.0426 48.5469ZM28.663 48.6541L25.0842 48.057C25.0801 47.524 24.9071 47.006 24.5898 46.577C24.2726 46.148 23.8273 45.83 23.3178 45.6686V41.4276C23.7046 41.3036 24.0559 41.0886 24.342 40.8008C24.628 40.513 24.8404 40.1609 24.9613 39.7741L28.8474 39.6363L29.769 47.567C29.2953 47.8051 28.9085 48.1853 28.663 48.6541ZM28.1715 33.8491L28.663 38.1053L24.9459 38.2431C24.8521 37.9306 24.6894 37.6429 24.4698 37.401L27.4496 33.5888C27.6746 33.7136 27.9184 33.8015 28.1715 33.8491ZM31.2435 47.3374L30.3373 39.5751L35.5136 39.3914C35.6911 39.8135 35.9809 40.1792 36.3518 40.4491C36.7227 40.7189 37.1605 40.8826 37.6179 40.9224L38.217 45.2246L32.6413 48.1029C32.2798 47.7161 31.808 47.4489 31.2896 47.3374H31.2435ZM47.0643 28.6436L43.4854 31.9965L38.6778 28.4752V28.3068H46.88C46.9244 28.4275 46.9865 28.541 47.0643 28.6436ZM37.6947 29.6541L42.3027 33.0529L39.0157 36.115C38.7345 35.9784 38.4341 35.8855 38.1248 35.8394L37.2493 29.8684C37.409 29.823 37.5597 29.7505 37.6947 29.6541ZM57.9546 34.2471C58.3552 34.4971 58.8182 34.6298 59.2909 34.6299C59.6581 34.6287 60.0204 34.545 60.3507 34.3849L63.3306 38.2584C63.0584 38.6723 62.9142 39.1568 62.9158 39.6516C62.9272 39.8443 62.9633 40.0347 63.0234 40.2181L57.7702 43.0658L54.0378 40.0038C54.1846 39.6759 54.263 39.3217 54.2682 38.9627C54.2607 38.5626 54.1609 38.1697 53.9763 37.8144L57.9546 34.2471ZM50.2746 47.1077C49.805 46.6779 49.1917 46.4377 48.5542 46.4341C48.1773 46.4368 47.8054 46.5203 47.4637 46.679L44.3917 43.617L49.8906 40.7693C50.2877 41.1648 50.8073 41.4148 51.365 41.4787C51.9227 41.5427 52.4857 41.4167 52.9626 41.1214L56.265 43.8313L50.2746 47.1077ZM52.7014 38.9627C52.7014 39.2307 52.5946 39.4877 52.4045 39.6772C52.2144 39.8667 51.9566 39.9732 51.6877 39.9732C51.4188 39.9732 51.161 39.8667 50.9708 39.6772C50.7807 39.4877 50.6739 39.2307 50.6739 38.9627C50.6739 38.6947 50.7807 38.4377 50.9708 38.2482C51.161 38.0587 51.4188 37.9522 51.6877 37.9522C51.9566 37.9522 52.2144 38.0587 52.4045 38.2482C52.5946 38.4377 52.7014 38.6947 52.7014 38.9627ZM49.184 39.422L43.2858 42.484L40.2138 39.422C40.3864 39.0855 40.4759 38.7129 40.4749 38.335C40.4611 37.9203 40.345 37.5154 40.137 37.1561L43.6083 33.9103L49.2915 38.09C49.1882 38.3699 49.1311 38.6646 49.1226 38.9627C49.1994 39.177 49.1994 39.3301 49.1994 39.4832L49.184 39.422ZM37.879 37.2786C38.0802 37.2755 38.2777 37.3322 38.4464 37.4414C38.6151 37.5505 38.7474 37.7073 38.8265 37.8916C38.9056 38.076 38.9279 38.2796 38.8905 38.4766C38.8532 38.6736 38.7578 38.8551 38.6167 38.9979C38.4755 39.1408 38.295 39.2386 38.0979 39.2788C37.9008 39.3191 37.6962 39.3 37.5101 39.224C37.3239 39.1479 37.1647 39.0185 37.0526 38.852C36.9405 38.6855 36.8807 38.4895 36.8806 38.289C36.8959 38.037 37.0053 37.7998 37.1872 37.6241C37.3691 37.4484 37.6105 37.347 37.8637 37.3398L37.879 37.2786ZM41.8419 43.2802L39.7069 44.3825L39.1846 40.6162L41.8419 43.2802ZM33.3786 49.4043L38.4474 46.7709L39.1386 51.7467L33.4246 49.8636C33.4258 49.7093 33.4104 49.5553 33.3786 49.4043ZM39.9834 46.0207L43.0554 44.4897L46.327 47.8732C46.1182 48.2481 46.0073 48.6693 46.0045 49.0981C46.0118 49.4501 46.0951 49.7965 46.2489 50.1135C46.4026 50.4306 46.6231 50.7109 46.8954 50.9353L44.9907 53.6452L40.7974 52.2826L39.9834 46.0207ZM48.6003 50.032C48.3998 50.032 48.2038 49.9727 48.0371 49.8617C47.8704 49.7506 47.7405 49.5928 47.6637 49.4082C47.587 49.2236 47.5669 49.0204 47.606 48.8244C47.6452 48.6283 47.7417 48.4483 47.8835 48.307C48.0253 48.1657 48.2059 48.0694 48.4026 48.0304C48.5992 47.9915 48.803 48.0115 48.9883 48.0879C49.1735 48.1644 49.3318 48.2939 49.4432 48.4601C49.5546 48.6263 49.6141 48.8216 49.6141 49.0215C49.6143 49.1595 49.5862 49.2961 49.5315 49.4229C49.4767 49.5496 49.3965 49.6639 49.2958 49.7586C49.195 49.8532 49.0759 49.9264 48.9457 49.9734C48.8156 50.0204 48.6771 50.0403 48.5389 50.032H48.6003ZM64.2368 48.3632L59.0605 44.1528L63.8067 41.5807C64.0759 41.8256 64.3958 42.0085 64.7437 42.1166V48.1335C64.547 48.191 64.3566 48.2679 64.1754 48.3632H64.2368ZM66.5254 39.7129C66.5254 39.9127 66.466 40.1081 66.3546 40.2743C66.2432 40.4404 66.0849 40.57 65.8996 40.6464C65.7144 40.7229 65.5106 40.7429 65.3139 40.7039C65.1173 40.665 64.9366 40.5687 64.7948 40.4274C64.6531 40.2861 64.5565 40.106 64.5174 39.91C64.4783 39.714 64.4984 39.5108 64.5751 39.3262C64.6518 39.1415 64.7818 38.9837 64.9485 38.8727C65.1152 38.7617 65.3112 38.7024 65.5117 38.7024C65.7698 38.718 66.0121 38.8313 66.1891 39.0192C66.3661 39.207 66.4645 39.4552 66.464 39.7129H66.5254ZM59.3523 31.1545C59.5528 31.1545 59.7488 31.2137 59.9155 31.3248C60.0823 31.4358 60.2122 31.5936 60.2889 31.7782C60.3656 31.9629 60.3857 32.1661 60.3466 32.3621C60.3075 32.5581 60.2109 32.7381 60.0692 32.8794C59.9274 33.0208 59.7467 33.117 59.5501 33.156C59.3534 33.195 59.1496 33.175 58.9644 33.0985C58.7791 33.022 58.6208 32.8925 58.5094 32.7263C58.398 32.5602 58.3386 32.3648 58.3386 32.1649C58.3343 31.9061 58.4314 31.6559 58.6091 31.4672C58.7869 31.2785 59.0315 31.1664 59.2909 31.1545H59.3523ZM56.8333 31.8434C56.8257 31.9505 56.8257 32.0579 56.8333 32.1649C56.8333 32.5081 56.9066 32.8473 57.0483 33.1601L52.9318 36.7886C52.5718 36.5997 52.1714 36.4999 51.7645 36.4977C51.253 36.4899 50.7524 36.6455 50.336 36.9417L44.745 32.9151L48.1242 29.7612C48.498 29.9593 48.9143 30.0643 49.3376 30.0674C49.7233 30.0663 50.1037 29.9775 50.4497 29.8077C50.7957 29.6379 51.0983 29.3916 51.3344 29.0876L56.8333 31.8434ZM49.399 26.5308C49.6652 26.5348 49.9192 26.643 50.106 26.8321C50.2928 27.0212 50.3975 27.2759 50.3974 27.5412C50.3671 27.7859 50.248 28.011 50.0627 28.1742C49.8774 28.3375 49.6387 28.4276 49.3914 28.4276C49.1441 28.4276 48.9053 28.3375 48.72 28.1742C48.5347 28.011 48.4157 27.7859 48.3853 27.5412C48.3848 27.2835 48.4831 27.0354 48.6602 26.8475C48.8372 26.6597 49.0795 26.5464 49.3376 26.5308H49.399ZM36.3738 26.5308C36.6414 26.5347 36.8969 26.6424 37.0862 26.8311C37.2755 27.0197 37.3836 27.2745 37.3875 27.5412C37.3875 27.8092 37.2807 28.0663 37.0906 28.2558C36.9005 28.4453 36.6426 28.5517 36.3738 28.5517C36.1049 28.5517 35.847 28.4453 35.6569 28.2558C35.4668 28.0663 35.36 27.8092 35.36 27.5412C35.3631 27.2846 35.4627 27.0384 35.639 26.8514C35.8153 26.6643 36.0555 26.5499 36.3123 26.5308H36.3738ZM35.8208 30.0062L36.7117 36.1303C36.3735 36.3049 36.0783 36.5519 35.8473 36.8537C35.6163 37.1555 35.4551 37.5045 35.3754 37.8757L30.2144 38.0594L29.6922 33.6347C30.1274 33.4315 30.4956 33.1091 30.754 32.7052C31.0123 32.3013 31.1502 31.8325 31.1514 31.3535C31.1748 31.1603 31.1748 30.9649 31.1514 30.7717L34.4691 29.2407C34.8092 29.623 35.2601 29.8905 35.7594 30.0062H35.8208ZM28.6784 30.343C28.9446 30.347 29.1985 30.4553 29.3853 30.6443C29.5721 30.8334 29.6768 31.0881 29.6768 31.3535C29.6768 31.4842 29.651 31.6136 29.6008 31.7343C29.5506 31.8551 29.4771 31.9648 29.3844 32.0572C29.2917 32.1496 29.1816 32.2229 29.0605 32.2729C28.9393 32.3229 28.8095 32.3487 28.6784 32.3487C28.4122 32.3487 28.1566 32.2443 27.9669 32.0581C27.7773 31.8719 27.6687 31.6188 27.6646 31.3535C27.6678 31.0968 27.7673 30.8507 27.9436 30.6636C28.1199 30.4765 28.3602 30.3621 28.617 30.343H28.6784ZM22.6112 37.9981C22.876 37.9981 23.1299 38.103 23.3172 38.2896C23.5044 38.4762 23.6096 38.7294 23.6096 38.9933C23.6126 39.1944 23.5554 39.3919 23.4452 39.5604C23.335 39.7289 23.1768 39.8607 22.9909 39.9391C22.8051 40.0175 22.6 40.0388 22.4019 40.0003C22.2039 39.9618 22.0218 39.8652 21.8791 39.723C21.7364 39.5808 21.6396 39.3993 21.6009 39.2019C21.5623 39.0045 21.5837 38.8 21.6623 38.6148C21.7409 38.4295 21.8732 38.2719 22.0423 38.162C22.2113 38.0522 22.4094 37.9951 22.6112 37.9981ZM22.6112 49.0368C22.4788 49.0388 22.3473 49.0146 22.2244 48.9655C22.1015 48.9164 21.9896 48.8434 21.8953 48.7508C21.8009 48.6582 21.726 48.5478 21.6749 48.426C21.6238 48.3043 21.5974 48.1736 21.5974 48.0416C21.5798 47.8996 21.5926 47.7553 21.6351 47.6186C21.6776 47.4818 21.7488 47.3556 21.8439 47.2483C21.9391 47.141 22.056 47.0551 22.1869 46.9963C22.3179 46.9374 22.4599 46.907 22.6035 46.907C22.7472 46.907 22.8892 46.9374 23.0201 46.9963C23.1511 47.0551 23.268 47.141 23.3631 47.2483C23.4582 47.3556 23.5294 47.4818 23.5719 47.6186C23.6144 47.7553 23.6273 47.8996 23.6096 48.0416C23.6142 48.1802 23.5896 48.3182 23.5375 48.4467C23.4855 48.5753 23.407 48.6916 23.3073 48.7881C23.2075 48.8847 23.0886 48.9594 22.9581 49.0075C22.8277 49.0556 22.6886 49.076 22.5498 49.0674L22.6112 49.0368ZM29.9379 49.8023C29.942 49.537 30.0505 49.2839 30.2402 49.0977C30.4299 48.9115 30.6855 48.8071 30.9517 48.8072C31.1971 48.8374 31.423 48.9561 31.5867 49.1408C31.7505 49.3255 31.8409 49.5635 31.8409 49.81C31.8409 50.0565 31.7505 50.2945 31.5867 50.4792C31.423 50.6638 31.1971 50.7825 30.9517 50.8128C30.816 50.8211 30.6801 50.8021 30.5519 50.7569C30.4238 50.7117 30.3061 50.6414 30.2058 50.55C30.1055 50.4586 30.0246 50.348 29.9681 50.2248C29.9115 50.1016 29.8803 49.9684 29.8765 49.8329L29.9379 49.8023ZM32.6566 58.3301C32.4561 58.3301 32.2601 58.2709 32.0934 58.1598C31.9267 58.0488 31.7968 57.891 31.7201 57.7063C31.6433 57.5217 31.6232 57.3185 31.6624 57.1225C31.7015 56.9265 31.798 56.7464 31.9398 56.6051C32.0816 56.4638 32.2622 56.3676 32.4589 56.3286C32.6555 56.2896 32.8594 56.3096 33.0446 56.3861C33.2298 56.4626 33.3882 56.5921 33.4996 56.7583C33.6109 56.9244 33.6704 57.1198 33.6704 57.3196C33.6726 57.4596 33.6461 57.5985 33.5925 57.7279C33.5388 57.8572 33.4592 57.9742 33.3585 58.0718C33.2578 58.1693 33.1381 58.2452 33.0068 58.2949C32.8756 58.3446 32.7355 58.367 32.5952 58.3607L32.6566 58.3301ZM32.6566 54.7781H32.457L32.073 52.0376C32.4438 51.8563 32.7652 51.5885 33.0099 51.2568L39.4611 53.3696L40.1062 58.5904C39.9101 58.7474 39.7392 58.9332 39.5994 59.1416L35.1296 57.4881C35.1461 57.1447 35.0931 56.8015 34.9735 56.4791C34.8539 56.1566 34.6704 55.8615 34.4338 55.6114C34.1972 55.3613 33.9124 55.1613 33.5965 55.0234C33.2806 54.8855 32.9401 54.8125 32.5952 54.8088L32.6566 54.7781ZM41.7805 61.4534C41.58 61.4534 41.384 61.3941 41.2173 61.2831C41.0506 61.1721 40.9206 61.0143 40.8439 60.8296C40.7672 60.645 40.7471 60.4418 40.7862 60.2458C40.8253 60.0498 40.9219 59.8697 41.0636 59.7284C41.2054 59.5871 41.3861 59.4909 41.5827 59.4519C41.7794 59.4129 41.9832 59.4329 42.1684 59.5094C42.3537 59.5859 42.512 59.7154 42.6234 59.8815C42.7348 60.0477 42.7942 60.2431 42.7942 60.4429C42.7965 60.5829 42.77 60.7218 42.7163 60.8511C42.6627 60.9805 42.5831 61.0975 42.4823 61.1951C42.3816 61.2926 42.2619 61.3685 42.1307 61.4182C41.9994 61.4679 41.8593 61.4903 41.719 61.484L41.7805 61.4534ZM42.0109 57.9321H41.7805H41.5194L41.0278 53.9973L44.0998 54.9925L42.0109 57.9321ZM48.4006 51.5171H48.6003C49.0937 51.5112 49.5749 51.3637 49.9863 51.0922C50.3977 50.8206 50.7218 50.4366 50.9197 49.986L63.0848 51.1649C63.1189 51.2846 63.1599 51.4022 63.2077 51.5171L57.8778 55.957C57.4366 55.6189 56.8982 55.4311 56.3418 55.4212C55.9225 55.423 55.51 55.5272 55.1404 55.7247C54.7709 55.9222 54.4556 56.207 54.2221 56.5541L46.5421 54.0586L48.4006 51.5171ZM56.3264 59.0191C56.1246 59.0221 55.9265 58.965 55.7575 58.8552C55.5884 58.7453 55.4561 58.5877 55.3775 58.4024C55.2989 58.2172 55.2775 58.0127 55.3161 57.8153C55.3548 57.6179 55.4516 57.4364 55.5943 57.2942C55.737 57.152 55.9191 57.0554 56.1171 57.0169C56.3152 56.9784 56.5203 56.9997 56.7061 57.0781C56.892 57.1565 57.0502 57.2883 57.1604 57.4568C57.2706 57.6253 57.3278 57.8228 57.3248 58.0239C57.3294 58.1625 57.3048 58.3004 57.2527 58.429C57.2007 58.5576 57.1222 58.6738 57.0225 58.7704C56.9227 58.867 56.8038 58.9417 56.6733 58.9898C56.5429 59.0379 56.4038 59.0583 56.265 59.0497L56.3264 59.0191ZM65.5424 51.5171C65.3419 51.5171 65.1459 51.4578 64.9792 51.3468C64.8125 51.2357 64.6825 51.0779 64.6058 50.8933C64.5291 50.7086 64.509 50.5055 64.5481 50.3095C64.5872 50.1134 64.6838 49.9334 64.8256 49.7921C64.9673 49.6508 65.148 49.5545 65.3446 49.5155C65.5413 49.4765 65.7451 49.4965 65.9304 49.573C66.1156 49.6495 66.2739 49.779 66.3853 49.9452C66.4967 50.1114 66.5562 50.3067 66.5562 50.5066C66.5637 50.6506 66.5398 50.7945 66.486 50.9284C66.4322 51.0623 66.3498 51.1829 66.2446 51.282C66.1395 51.381 66.0139 51.456 65.8768 51.5019C65.7396 51.5478 65.5941 51.5634 65.4502 51.5477L65.5424 51.5171Z" fill="white"/>
</g>
<path id="Vector_2" d="M66.2182 48.1335V42.1166C66.804 41.9411 67.3063 41.5605 67.6326 41.0448C67.9588 40.5292 68.087 39.9133 67.9934 39.3108C67.8999 38.7084 67.5909 38.16 67.1235 37.7668C66.6561 37.3736 66.0618 37.1621 65.4502 37.1714C65.1344 37.1762 64.8221 37.2385 64.5286 37.3551L61.4566 33.4051C61.6773 33.0287 61.7939 32.6008 61.7946 32.1649C61.7974 31.654 61.6448 31.1543 61.3568 30.7317C61.0688 30.309 60.6591 29.9834 60.1816 29.7976C59.7041 29.6119 59.1813 29.5748 58.6823 29.6913C58.1832 29.8078 57.7313 30.0724 57.3862 30.4502L51.8413 27.6484V27.5412C51.8385 26.9404 51.6211 26.3602 51.2278 25.9048C50.8346 25.4494 50.2914 25.1486 49.6958 25.0564C49.1001 24.9642 48.491 25.0867 47.9778 25.4018C47.4645 25.7169 47.0808 26.204 46.8954 26.7757H38.7238C38.5478 26.1919 38.1659 25.6912 37.6486 25.366C37.1312 25.0408 36.5134 24.913 35.909 25.0063C35.3045 25.0996 34.7544 25.4075 34.3599 25.8734C33.9654 26.3393 33.7532 26.9317 33.7626 27.5412C33.7626 27.6331 33.7626 27.7097 33.7626 27.8015L30.2912 29.501C29.8305 29.0903 29.235 28.8616 28.617 28.8579C27.942 28.8619 27.2958 29.131 26.8185 29.6067C26.3412 30.0825 26.0712 30.7266 26.0672 31.3994C26.0694 31.8001 26.1696 32.1943 26.359 32.5477L23.1642 36.6202C22.96 36.5968 22.7539 36.5968 22.5498 36.6202C21.947 36.6229 21.3649 36.8397 20.908 37.2317C20.4511 37.6236 20.1494 38.165 20.0569 38.7588C19.9644 39.3525 20.0872 39.9596 20.4034 40.4712C20.7195 40.9828 21.2082 41.3653 21.7818 41.5501V45.791C21.3838 45.9014 21.0188 46.107 20.7188 46.39C20.4187 46.673 20.1926 47.0249 20.0602 47.4149C19.9277 47.8049 19.8929 48.2213 19.9588 48.6278C20.0247 49.0343 20.1892 49.4186 20.4382 49.7472C20.6871 50.0758 21.0129 50.3388 21.3871 50.5132C21.7613 50.6876 22.1726 50.7682 22.5852 50.748C22.9978 50.7278 23.3992 50.6074 23.7544 50.3972C24.1097 50.187 24.408 49.8934 24.6234 49.542L28.3866 50.1545C28.4515 50.6985 28.6942 51.2062 29.0773 51.5991C29.4603 51.992 29.9625 52.2483 30.5062 52.3285L30.9517 55.3906C30.674 55.6237 30.4504 55.9142 30.2966 56.2421C30.1428 56.5699 30.0623 56.9271 30.0608 57.289C30.0434 57.8327 30.2026 58.3674 30.5146 58.8137C30.8266 59.26 31.2748 59.594 31.7925 59.766C32.3102 59.938 32.8698 59.9388 33.388 59.7684C33.9062 59.598 34.3554 59.2654 34.6688 58.82L39.2768 60.5195C39.3369 61.1575 39.6366 61.7494 40.1159 62.1766C40.5953 62.6037 41.2188 62.8346 41.8616 62.823C42.5045 62.8114 43.1192 62.5581 43.5826 62.1139C44.0461 61.6697 44.3241 61.0674 44.361 60.4276C44.3356 60.0714 44.2365 59.7243 44.07 59.4081C43.9034 59.0919 43.673 58.8135 43.3933 58.5904L45.5898 55.5283L53.8074 58.1311C53.8074 58.8011 54.0744 59.4436 54.5497 59.9174C55.025 60.3911 55.6696 60.6573 56.3418 60.6573C57.0139 60.6573 57.6586 60.3911 58.1339 59.9174C58.6091 59.4436 58.8762 58.8011 58.8762 58.1311C58.8753 57.8811 58.8338 57.6329 58.7533 57.3962L64.2675 52.8031C64.576 52.9837 64.9193 53.0972 65.2748 53.1361C65.6304 53.175 65.9902 53.1385 66.3306 53.0288C66.671 52.9192 66.9843 52.739 67.2498 52.5C67.5153 52.2611 67.7271 51.9688 67.8711 51.6424C68.0152 51.3161 68.0883 50.963 68.0857 50.6064C68.083 50.2499 68.0047 49.8979 67.8558 49.5737C67.707 49.2495 67.4909 48.9604 67.2219 48.7253C66.9529 48.4903 66.637 48.3147 66.295 48.2101L66.2182 48.1335ZM51.0426 48.5469L57.5706 45.0102L63.1616 49.6033C63.1553 49.6695 63.1553 49.7361 63.1616 49.8023L51.0426 48.5469ZM28.663 48.6541L25.0842 48.057C25.0801 47.524 24.9071 47.006 24.5898 46.577C24.2726 46.148 23.8273 45.83 23.3178 45.6686V41.4276C23.7046 41.3036 24.0559 41.0886 24.342 40.8008C24.628 40.513 24.8404 40.1609 24.9613 39.7741L28.8474 39.6363L29.769 47.567C29.2953 47.8051 28.9085 48.1853 28.663 48.6541ZM28.1715 33.8491L28.663 38.1053L24.9459 38.2431C24.8521 37.9306 24.6894 37.6429 24.4698 37.401L27.4496 33.5888C27.6746 33.7136 27.9184 33.8015 28.1715 33.8491ZM31.2435 47.3374L30.3373 39.5751L35.5136 39.3914C35.6911 39.8135 35.9809 40.1792 36.3518 40.4491C36.7227 40.7189 37.1605 40.8826 37.6179 40.9224L38.217 45.2246L32.6413 48.1029C32.2798 47.7161 31.808 47.4489 31.2896 47.3374H31.2435ZM47.0643 28.6436L43.4854 31.9965L38.6778 28.4752V28.3068H46.88C46.9244 28.4275 46.9865 28.541 47.0643 28.6436ZM37.6947 29.6541L42.3027 33.0529L39.0157 36.115C38.7345 35.9784 38.4341 35.8855 38.1248 35.8394L37.2493 29.8684C37.409 29.823 37.5597 29.7505 37.6947 29.6541ZM57.9546 34.2471C58.3552 34.4971 58.8182 34.6298 59.2909 34.6299C59.6581 34.6287 60.0204 34.545 60.3507 34.3849L63.3306 38.2584C63.0584 38.6723 62.9142 39.1568 62.9158 39.6516C62.9272 39.8443 62.9633 40.0347 63.0234 40.2181L57.7702 43.0658L54.0378 40.0038C54.1846 39.6759 54.2629 39.3217 54.2682 38.9627C54.2607 38.5626 54.1609 38.1697 53.9763 37.8144L57.9546 34.2471ZM50.2746 47.1077C49.805 46.6779 49.1917 46.4377 48.5542 46.4341C48.1773 46.4368 47.8054 46.5203 47.4637 46.679L44.3917 43.617L49.8906 40.7693C50.2877 41.1648 50.8073 41.4148 51.365 41.4787C51.9227 41.5427 52.4857 41.4167 52.9626 41.1214L56.265 43.8313L50.2746 47.1077ZM52.7014 38.9627C52.7014 39.2307 52.5946 39.4877 52.4045 39.6772C52.2144 39.8667 51.9566 39.9732 51.6877 39.9732C51.4188 39.9732 51.161 39.8667 50.9708 39.6772C50.7807 39.4877 50.6739 39.2307 50.6739 38.9627C50.6739 38.6947 50.7807 38.4377 50.9708 38.2482C51.161 38.0587 51.4188 37.9522 51.6877 37.9522C51.9566 37.9522 52.2144 38.0587 52.4045 38.2482C52.5946 38.4377 52.7014 38.6947 52.7014 38.9627ZM49.184 39.422L43.2858 42.484L40.2138 39.422C40.3864 39.0855 40.4759 38.7129 40.4749 38.335C40.4611 37.9203 40.345 37.5154 40.137 37.1561L43.6083 33.9103L49.2915 38.09C49.1882 38.3699 49.1311 38.6646 49.1226 38.9627C49.1994 39.177 49.1994 39.3301 49.1994 39.4832L49.184 39.422ZM37.879 37.2786C38.0802 37.2755 38.2777 37.3322 38.4464 37.4414C38.6151 37.5505 38.7474 37.7073 38.8265 37.8916C38.9056 38.076 38.9279 38.2796 38.8905 38.4766C38.8532 38.6736 38.7578 38.8551 38.6167 38.9979C38.4755 39.1408 38.295 39.2386 38.0979 39.2788C37.9008 39.3191 37.6962 39.3 37.5101 39.224C37.3239 39.1479 37.1647 39.0185 37.0526 38.852C36.9405 38.6855 36.8807 38.4895 36.8806 38.289C36.8959 38.037 37.0053 37.7998 37.1872 37.6241C37.3691 37.4484 37.6105 37.347 37.8637 37.3398L37.879 37.2786ZM41.8419 43.2802L39.7069 44.3825L39.1846 40.6162L41.8419 43.2802ZM33.3786 49.4043L38.4474 46.7709L39.1386 51.7467L33.4246 49.8636C33.4258 49.7093 33.4103 49.5553 33.3786 49.4043ZM39.9834 46.0207L43.0554 44.4897L46.327 47.8732C46.1182 48.2481 46.0073 48.6693 46.0045 49.0981C46.0118 49.4501 46.0951 49.7965 46.2489 50.1135C46.4026 50.4306 46.6231 50.7109 46.8954 50.9353L44.9907 53.6452L40.7974 52.2826L39.9834 46.0207ZM48.6003 50.032C48.3998 50.032 48.2038 49.9727 48.0371 49.8617C47.8704 49.7506 47.7405 49.5928 47.6637 49.4082C47.587 49.2236 47.5669 49.0204 47.606 48.8244C47.6452 48.6283 47.7417 48.4483 47.8835 48.307C48.0253 48.1657 48.2059 48.0694 48.4025 48.0304C48.5992 47.9915 48.803 48.0115 48.9883 48.0879C49.1735 48.1644 49.3318 48.2939 49.4432 48.4601C49.5546 48.6263 49.6141 48.8216 49.6141 49.0215C49.6143 49.1595 49.5862 49.2961 49.5315 49.4229C49.4767 49.5496 49.3965 49.6639 49.2958 49.7586C49.195 49.8532 49.0759 49.9264 48.9457 49.9734C48.8156 50.0204 48.6771 50.0403 48.5389 50.032H48.6003ZM64.2368 48.3632L59.0605 44.1528L63.8067 41.5807C64.0759 41.8256 64.3958 42.0085 64.7437 42.1166V48.1335C64.547 48.191 64.3566 48.2679 64.1754 48.3632H64.2368ZM66.5254 39.7129C66.5254 39.9127 66.466 40.1081 66.3546 40.2743C66.2432 40.4404 66.0849 40.57 65.8996 40.6464C65.7144 40.7229 65.5106 40.7429 65.3139 40.7039C65.1173 40.665 64.9366 40.5687 64.7948 40.4274C64.6531 40.2861 64.5565 40.106 64.5174 39.91C64.4783 39.714 64.4984 39.5108 64.5751 39.3262C64.6518 39.1415 64.7818 38.9837 64.9485 38.8727C65.1152 38.7617 65.3112 38.7024 65.5117 38.7024C65.7698 38.718 66.0121 38.8313 66.1891 39.0192C66.3661 39.207 66.4645 39.4552 66.464 39.7129H66.5254ZM59.3523 31.1545C59.5528 31.1545 59.7488 31.2137 59.9155 31.3248C60.0823 31.4358 60.2122 31.5936 60.2889 31.7782C60.3656 31.9629 60.3857 32.1661 60.3466 32.3621C60.3075 32.5581 60.2109 32.7381 60.0692 32.8794C59.9274 33.0208 59.7467 33.117 59.5501 33.156C59.3534 33.195 59.1496 33.175 58.9644 33.0985C58.7791 33.022 58.6208 32.8925 58.5094 32.7263C58.398 32.5602 58.3386 32.3648 58.3386 32.1649C58.3343 31.9061 58.4314 31.6559 58.6091 31.4672C58.7869 31.2785 59.0315 31.1664 59.2909 31.1545H59.3523ZM56.8333 31.8434C56.8257 31.9505 56.8257 32.0579 56.8333 32.1649C56.8333 32.5081 56.9066 32.8473 57.0483 33.1601L52.9318 36.7886C52.5718 36.5997 52.1714 36.4999 51.7645 36.4977C51.253 36.4899 50.7524 36.6455 50.336 36.9417L44.745 32.9151L48.1242 29.7612C48.498 29.9593 48.9143 30.0643 49.3376 30.0674C49.7233 30.0663 50.1037 29.9775 50.4497 29.8077C50.7957 29.6379 51.0983 29.3916 51.3344 29.0876L56.8333 31.8434ZM49.399 26.5308C49.6652 26.5348 49.9192 26.643 50.106 26.8321C50.2928 27.0212 50.3975 27.2759 50.3974 27.5412C50.3671 27.7859 50.248 28.011 50.0627 28.1742C49.8774 28.3375 49.6387 28.4276 49.3914 28.4276C49.1441 28.4276 48.9053 28.3375 48.72 28.1742C48.5347 28.011 48.4157 27.7859 48.3853 27.5412C48.3848 27.2835 48.4831 27.0354 48.6602 26.8475C48.8372 26.6597 49.0795 26.5464 49.3376 26.5308H49.399ZM36.3738 26.5308C36.6414 26.5347 36.8969 26.6424 37.0862 26.8311C37.2755 27.0197 37.3836 27.2745 37.3875 27.5412C37.3875 27.8092 37.2807 28.0663 37.0906 28.2558C36.9005 28.4453 36.6426 28.5517 36.3738 28.5517C36.1049 28.5517 35.847 28.4453 35.6569 28.2558C35.4668 28.0663 35.36 27.8092 35.36 27.5412C35.3631 27.2846 35.4627 27.0384 35.639 26.8514C35.8153 26.6643 36.0555 26.5499 36.3123 26.5308H36.3738ZM35.8208 30.0062L36.7117 36.1303C36.3735 36.3049 36.0783 36.5519 35.8473 36.8537C35.6163 37.1555 35.4551 37.5045 35.3754 37.8757L30.2144 38.0594L29.6922 33.6347C30.1274 33.4315 30.4956 33.1091 30.754 32.7052C31.0123 32.3013 31.1502 31.8325 31.1514 31.3535C31.1748 31.1603 31.1748 30.9649 31.1514 30.7717L34.4691 29.2407C34.8092 29.623 35.2601 29.8905 35.7594 30.0062H35.8208ZM28.6784 30.343C28.9446 30.347 29.1985 30.4553 29.3853 30.6443C29.5721 30.8334 29.6768 31.0881 29.6768 31.3535C29.6768 31.4842 29.651 31.6136 29.6008 31.7343C29.5506 31.8551 29.4771 31.9648 29.3844 32.0572C29.2917 32.1496 29.1816 32.2229 29.0605 32.2729C28.9393 32.3229 28.8095 32.3487 28.6784 32.3487C28.4122 32.3487 28.1566 32.2443 27.9669 32.0581C27.7773 31.8719 27.6687 31.6188 27.6646 31.3535C27.6678 31.0968 27.7673 30.8507 27.9436 30.6636C28.1199 30.4765 28.3602 30.3621 28.617 30.343H28.6784ZM22.6112 37.9981C22.876 37.9981 23.1299 38.103 23.3172 38.2896C23.5044 38.4762 23.6096 38.7294 23.6096 38.9933C23.6126 39.1944 23.5554 39.3919 23.4452 39.5604C23.335 39.7289 23.1768 39.8607 22.9909 39.9391C22.8051 40.0175 22.6 40.0388 22.4019 40.0003C22.2039 39.9618 22.0218 39.8652 21.8791 39.723C21.7364 39.5808 21.6396 39.3993 21.6009 39.2019C21.5623 39.0045 21.5837 38.8 21.6623 38.6148C21.7409 38.4295 21.8732 38.2719 22.0423 38.162C22.2113 38.0522 22.4094 37.9951 22.6112 37.9981ZM22.6112 49.0368C22.4788 49.0388 22.3473 49.0146 22.2244 48.9655C22.1015 48.9164 21.9896 48.8434 21.8953 48.7508C21.8009 48.6582 21.726 48.5478 21.6749 48.426C21.6238 48.3043 21.5974 48.1736 21.5974 48.0416C21.5798 47.8996 21.5926 47.7553 21.6351 47.6186C21.6776 47.4818 21.7488 47.3556 21.8439 47.2483C21.9391 47.141 22.056 47.0551 22.1869 46.9963C22.3179 46.9374 22.4599 46.907 22.6035 46.907C22.7472 46.907 22.8892 46.9374 23.0201 46.9963C23.1511 47.0551 23.268 47.141 23.3631 47.2483C23.4582 47.3556 23.5294 47.4818 23.5719 47.6186C23.6144 47.7553 23.6273 47.8996 23.6096 48.0416C23.6142 48.1802 23.5896 48.3182 23.5375 48.4467C23.4855 48.5753 23.407 48.6916 23.3073 48.7881C23.2075 48.8847 23.0886 48.9594 22.9581 49.0075C22.8277 49.0556 22.6886 49.076 22.5498 49.0674L22.6112 49.0368ZM29.9379 49.8023C29.942 49.537 30.0505 49.2839 30.2402 49.0977C30.4299 48.9115 30.6855 48.8071 30.9517 48.8072C31.1971 48.8374 31.423 48.9561 31.5867 49.1408C31.7505 49.3255 31.8409 49.5635 31.8409 49.81C31.8409 50.0565 31.7505 50.2945 31.5867 50.4792C31.423 50.6638 31.1971 50.7825 30.9517 50.8128C30.816 50.8211 30.6801 50.8021 30.5519 50.7569C30.4238 50.7117 30.3061 50.6414 30.2058 50.55C30.1055 50.4586 30.0246 50.348 29.9681 50.2248C29.9115 50.1016 29.8803 49.9684 29.8765 49.8329L29.9379 49.8023ZM32.6566 58.3301C32.4561 58.3301 32.2601 58.2709 32.0934 58.1598C31.9267 58.0488 31.7968 57.891 31.7201 57.7063C31.6433 57.5217 31.6232 57.3185 31.6624 57.1225C31.7015 56.9265 31.798 56.7464 31.9398 56.6051C32.0816 56.4638 32.2622 56.3676 32.4589 56.3286C32.6555 56.2896 32.8594 56.3096 33.0446 56.3861C33.2298 56.4626 33.3882 56.5921 33.4996 56.7583C33.6109 56.9244 33.6704 57.1198 33.6704 57.3196C33.6726 57.4596 33.6461 57.5985 33.5925 57.7279C33.5388 57.8572 33.4592 57.9742 33.3585 58.0718C33.2578 58.1693 33.1381 58.2452 33.0068 58.2949C32.8756 58.3446 32.7355 58.367 32.5952 58.3607L32.6566 58.3301ZM32.6566 54.7781H32.457L32.073 52.0376C32.4438 51.8563 32.7652 51.5885 33.0099 51.2568L39.4611 53.3696L40.1062 58.5904C39.9101 58.7474 39.7392 58.9332 39.5994 59.1416L35.1296 57.4881C35.1461 57.1447 35.0931 56.8015 34.9735 56.4791C34.8539 56.1566 34.6704 55.8615 34.4338 55.6114C34.1972 55.3613 33.9124 55.1613 33.5965 55.0234C33.2806 54.8855 32.9401 54.8125 32.5952 54.8088L32.6566 54.7781ZM41.7805 61.4534C41.58 61.4534 41.384 61.3941 41.2173 61.2831C41.0506 61.1721 40.9206 61.0143 40.8439 60.8296C40.7672 60.645 40.7471 60.4418 40.7862 60.2458C40.8253 60.0498 40.9219 59.8697 41.0636 59.7284C41.2054 59.5871 41.3861 59.4909 41.5827 59.4519C41.7794 59.4129 41.9832 59.4329 42.1684 59.5094C42.3537 59.5859 42.512 59.7154 42.6234 59.8815C42.7348 60.0477 42.7942 60.2431 42.7942 60.4429C42.7965 60.5829 42.77 60.7218 42.7163 60.8511C42.6627 60.9805 42.5831 61.0975 42.4823 61.1951C42.3816 61.2926 42.2619 61.3685 42.1307 61.4182C41.9994 61.4679 41.8593 61.4903 41.719 61.484L41.7805 61.4534ZM42.0109 57.9321H41.7805H41.5194L41.0278 53.9973L44.0998 54.9925L42.0109 57.9321ZM48.4006 51.5171H48.6003C49.0937 51.5112 49.5749 51.3637 49.9863 51.0922C50.3977 50.8206 50.7218 50.4366 50.9197 49.986L63.0848 51.1649C63.1189 51.2846 63.1599 51.4022 63.2077 51.5171L57.8778 55.957C57.4366 55.6189 56.8982 55.4311 56.3418 55.4212C55.9225 55.423 55.51 55.5272 55.1404 55.7247C54.7709 55.9222 54.4556 56.207 54.2221 56.5541L46.5421 54.0586L48.4006 51.5171ZM56.3264 59.0191C56.1246 59.0221 55.9265 58.965 55.7575 58.8552C55.5884 58.7453 55.4561 58.5877 55.3775 58.4024C55.2989 58.2172 55.2775 58.0127 55.3161 57.8153C55.3548 57.6179 55.4516 57.4364 55.5943 57.2942C55.737 57.152 55.9191 57.0554 56.1171 57.0169C56.3152 56.9784 56.5203 56.9997 56.7061 57.0781C56.892 57.1565 57.0502 57.2883 57.1604 57.4568C57.2706 57.6253 57.3278 57.8228 57.3248 58.0239C57.3294 58.1625 57.3048 58.3005 57.2527 58.429C57.2007 58.5576 57.1222 58.6738 57.0225 58.7704C56.9227 58.867 56.8038 58.9417 56.6733 58.9898C56.5429 59.0379 56.4038 59.0583 56.265 59.0497L56.3264 59.0191ZM65.5424 51.5171C65.3419 51.5171 65.1459 51.4578 64.9792 51.3468C64.8125 51.2357 64.6825 51.0779 64.6058 50.8933C64.5291 50.7086 64.509 50.5055 64.5481 50.3095C64.5872 50.1134 64.6838 49.9334 64.8256 49.7921C64.9673 49.6508 65.148 49.5545 65.3446 49.5155C65.5413 49.4765 65.7451 49.4965 65.9304 49.573C66.1156 49.6495 66.2739 49.779 66.3853 49.9452C66.4967 50.1114 66.5562 50.3067 66.5562 50.5066C66.5637 50.6506 66.5398 50.7945 66.486 50.9284C66.4322 51.0623 66.3498 51.1829 66.2446 51.2819C66.1395 51.381 66.0139 51.456 65.8768 51.5019C65.7396 51.5478 65.5941 51.5634 65.4502 51.5477L65.5424 51.5171Z" fill="#EDFFE7"/>
</g>
</g>
<defs>
<filter id="filter0_b_1801_2310" x="4.79999" y="4.79883" width="78.4" height="78.4004" filterUnits="userSpaceOnUse" color-interpolation-filters="sRGB">
<feFlood flood-opacity="0" result="BackgroundImageFix"/>
<feGaussianBlur in="BackgroundImageFix" stdDeviation="2"/>
<feComposite in2="SourceAlpha" operator="in" result="effect1_backgroundBlur_1801_2310"/>
<feBlend mode="normal" in="SourceGraphic" in2="effect1_backgroundBlur_1801_2310" result="shape"/>
</filter>
<filter id="filter1_f_1801_2310" x="0" y="0" width="88" height="88" filterUnits="userSpaceOnUse" color-interpolation-filters="sRGB">
<feFlood flood-opacity="0" result="BackgroundImageFix"/>
<feBlend mode="normal" in="SourceGraphic" in2="BackgroundImageFix" result="shape"/>
<feGaussianBlur stdDeviation="2" result="effect1_foregroundBlur_1801_2310"/>
</filter>
<filter id="filter2_f_1801_2310" x="15.9263" y="20.9766" width="56.1594" height="45.8477" filterUnits="userSpaceOnUse" color-interpolation-filters="sRGB">
<feFlood flood-opacity="0" result="BackgroundImageFix"/>
<feBlend mode="normal" in="SourceGraphic" in2="BackgroundImageFix" result="shape"/>
<feGaussianBlur stdDeviation="2" result="effect1_foregroundBlur_1801_2310"/>
</filter>
<radialGradient id="paint0_radial_1801_2310" cx="0" cy="0" r="1" gradientUnits="userSpaceOnUse" gradientTransform="translate(44 43.9988) rotate(90) scale(35.2)">
<stop offset="0.75" stop-color="#1759F1" stop-opacity="0.2"/>
<stop offset="1" stop-color="white"/>
</radialGradient>
<clipPath id="clip0_1801_2310">
<rect width="48" height="38" fill="white" transform="translate(20 25)"/>
</clipPath>
</defs>
</svg>
