<svg  style="overflow:visible" width="56" height="56" viewBox="0 0 56 56" fill="none" xmlns="http://www.w3.org/2000/svg">
<g id="&#228;&#186;&#164;&#233;&#128;&#154;&#231;&#137;&#169;&#230;&#181;&#129;">
<g id="Group 2" class="icon-wrapper">
<g id="Ellipse 55" filter="url(#filter0_b_1801_2309)">
<circle cx="28" cy="27.9994" r="24.64" fill="url(#paint0_radial_1801_2309)"/>
<circle cx="28" cy="27.9994" r="24.49" stroke="#0173FE" stroke-width="0.3"/>
</g>
<circle id="Ellipse 56" cx="28" cy="28" r="27.5" stroke="#0173FE"/>
</g>
<g id="&#233;&#151;&#133;&#230;&#151;&#130;&#238;&#158;&#135;&#229;&#166;&#175;&#226;&#128;&#179;&#231;&#180;&#161;" clip-path="url(#clip0_1801_2309)">
<path id="Vector" d="M27.9949 12C24.8285 11.998 21.7326 12.9352 19.099 14.6931C16.4654 16.451 14.4124 18.9505 13.1998 21.8755C11.9871 24.8005 11.6693 28.0194 12.2865 31.1251C12.9038 34.2307 14.4283 37.0835 16.6673 39.3225C18.9063 41.5614 21.759 43.086 24.8647 43.7032C27.9703 44.3204 31.1893 44.0026 34.1142 42.79C37.0392 41.5773 39.5388 39.5243 41.2967 36.8907C43.0545 34.2571 43.9918 31.1613 43.9897 27.9949C43.987 23.7536 42.301 19.6868 39.302 16.6878C36.3029 13.6888 32.2361 12.0027 27.9949 12ZM13.0445 28.5069H16.4851C16.5311 31.0459 17.0413 33.555 17.9904 35.9104H15.3075C13.9086 33.6875 13.1274 31.132 13.0445 28.5069ZM37.4669 34.4154C37.3479 34.0218 37.1054 33.677 36.7753 33.432C36.4452 33.1869 36.045 33.0546 35.6339 33.0546C35.2228 33.0546 34.8226 33.1869 34.4925 33.432C34.1624 33.677 33.9199 34.0218 33.8009 34.4154C33.4118 34.4154 33.0227 34.3027 32.6541 34.231C32.891 32.3319 33.0175 30.4207 33.0329 28.5069H38.4806C38.439 30.5159 38.0973 32.5074 37.4669 34.4154ZM22.9568 28.5069C22.9568 28.9062 22.9568 29.2954 22.9568 29.6947C22.5853 29.3258 22.243 28.9287 21.9328 28.5069H22.9568ZM32.0089 28.5069C31.9955 30.3585 31.8793 32.208 31.6608 34.0467C28.8879 33.5267 26.2773 32.3583 24.0422 30.6368C24.0422 29.9405 23.991 29.2237 23.9808 28.4762L32.0089 28.5069ZM23.9808 27.4829C23.9952 25.0055 24.2075 22.5332 24.6157 20.0896H31.3741C31.7823 22.5332 31.9946 25.0055 32.0089 27.4829H23.9808ZM31.5174 35.0605C31.4662 35.3472 31.4253 35.6339 31.3741 35.9104H24.6157C24.4109 34.7226 24.247 33.4221 24.1344 32.0192C26.3601 33.5299 28.8734 34.5652 31.5174 35.0605ZM32.5414 35.255C32.951 35.3165 33.3606 35.3882 33.7907 35.4394C33.8306 35.604 33.8926 35.7624 33.975 35.9104H32.3981C32.439 35.6851 32.48 35.4701 32.5107 35.255H32.5414ZM34.7533 34.999C34.7533 34.8188 34.8067 34.6426 34.9068 34.4927C35.007 34.3428 35.1493 34.226 35.3159 34.1571C35.4824 34.0881 35.6656 34.07 35.8424 34.1052C36.0192 34.1404 36.1816 34.2272 36.309 34.3546C36.4365 34.4821 36.5233 34.6445 36.5585 34.8212C36.5936 34.998 36.5756 35.1813 36.5066 35.3478C36.4376 35.5143 36.3208 35.6567 36.1709 35.7568C36.0211 35.857 35.8449 35.9104 35.6646 35.9104C35.5424 35.9145 35.4206 35.894 35.3064 35.8501C35.1923 35.8061 35.0881 35.7396 35.0002 35.6546C34.9123 35.5695 34.8424 35.4677 34.7947 35.3551C34.747 35.2424 34.7225 35.1214 34.7225 34.999H34.7533ZM33.0637 27.4829C33.0506 25.0054 32.8382 22.533 32.4288 20.0896H36.9241C37.9254 22.4285 38.4643 24.9391 38.5113 27.4829H33.0637ZM32.2445 19.0656C31.9328 17.0305 31.2117 15.0797 30.1248 13.3312C31.506 13.8171 32.7758 14.5749 33.8593 15.5598C34.9427 16.5447 35.8177 17.7368 36.4326 19.0656H32.2445ZM31.2205 19.0656H24.8102C25.6089 15.3075 26.8582 13.024 27.9949 13.024C29.1315 13.024 30.3808 15.2768 31.1795 19.0656H31.2205ZM23.8169 19.0656H19.5878C20.2085 17.7318 21.0914 16.5367 22.184 15.5515C23.2765 14.5663 24.5562 13.8112 25.9469 13.3312C24.8419 15.0757 24.1033 17.0267 23.776 19.0656H23.8169ZM23.6326 20.0896C23.2232 22.533 23.0108 25.0054 22.9977 27.4829H21.3081C20.9787 26.9099 20.7143 26.302 20.5197 25.6704C20.7525 25.4923 20.941 25.2629 21.0707 25.0001C21.2003 24.7372 21.2676 24.448 21.2672 24.1549C21.271 23.7965 21.1747 23.4441 20.9891 23.1375C20.8036 22.8309 20.5361 22.5822 20.2168 22.4193C19.8975 22.2565 19.5391 22.186 19.1819 22.2158C18.8248 22.2457 18.483 22.3746 18.1952 22.5882C18.4254 21.7343 18.7197 20.8991 19.0758 20.0896H23.6326ZM17.7344 25.1482C17.9035 25.435 18.1446 25.6727 18.4337 25.8379C18.7228 26.0032 19.05 26.0901 19.383 26.0902H19.6185C19.7679 26.5772 19.9598 27.0501 20.192 27.5034H17.5091C17.5282 26.7156 17.5898 25.9294 17.6934 25.1482H17.7344ZM19.383 25.0662C19.2023 25.0683 19.0251 25.0166 18.8739 24.9177C18.7227 24.8188 18.6043 24.6771 18.5338 24.5108C18.4632 24.3445 18.4437 24.1609 18.4777 23.9834C18.5117 23.806 18.5977 23.6426 18.7247 23.5142C18.8518 23.3857 19.0141 23.2979 19.1912 23.2619C19.3682 23.2259 19.552 23.2433 19.7191 23.312C19.8863 23.3806 20.0292 23.4974 20.1298 23.6475C20.2304 23.7976 20.2841 23.9742 20.2841 24.1549C20.2842 24.2772 20.2597 24.3983 20.2119 24.5109C20.1642 24.6235 20.0943 24.7254 20.0064 24.8104C19.9185 24.8955 19.8144 24.9619 19.7003 25.0059C19.5861 25.0498 19.4643 25.0704 19.3421 25.0662H19.383ZM16.5261 27.4829H13.0445C13.1287 24.8612 13.9099 22.3093 15.3075 20.0896H17.9904C17.0412 22.4414 16.531 24.9472 16.4851 27.4829H16.5261ZM17.5501 28.5069H20.7757C21.415 29.501 22.1944 30.3977 23.0899 31.1693C23.1867 32.7581 23.3679 34.3408 23.6326 35.9104H19.0963C18.094 33.5682 17.555 31.0541 17.5091 28.5069H17.5501ZM23.8169 36.9344C24.1317 38.9703 24.8563 40.9211 25.9469 42.6688C24.5656 42.1829 23.2958 41.4251 22.2124 40.4402C21.129 39.4553 20.2539 38.2632 19.639 36.9344H23.8169ZM24.8409 36.9344H31.2102C30.4115 40.6925 29.1622 42.976 28.0256 42.976C26.8889 42.976 25.6089 40.6925 24.8102 36.9344H24.8409ZM32.2445 36.9344H36.4326C35.8177 38.2632 34.9427 39.4553 33.8593 40.4402C32.7758 41.4251 31.506 42.1829 30.1248 42.6688C31.201 40.9179 31.9115 38.9673 32.2137 36.9344H32.2445ZM39.5353 28.5069H42.9453C42.8623 31.132 42.0811 33.6875 40.6822 35.9104H37.9993C38.9484 33.555 39.4586 31.0459 39.5046 28.5069H39.5353ZM39.5353 27.4829C39.4895 24.9472 38.9793 22.4414 38.0301 20.0896H40.7129C42.1106 22.3093 42.8917 24.8612 42.976 27.4829H39.5353ZM40.0166 19.0656H37.5488C36.6637 17.1879 35.3815 15.5249 33.7907 14.1914C36.2531 15.2352 38.3919 16.918 39.9859 19.0656H40.0166ZM22.199 14.1914C20.6082 15.5249 19.326 17.1879 18.4409 19.0656H16.0038C17.5978 16.918 19.7366 15.2352 22.199 14.1914ZM16.0038 36.9344H18.4409C19.326 38.8121 20.6082 40.4751 22.199 41.8086C19.7366 40.7648 17.5978 39.082 16.0038 36.9344ZM33.7907 41.8086C35.3815 40.4751 36.6637 38.8121 37.5488 36.9344H39.9859C38.3919 39.082 36.2531 40.7648 33.7907 41.8086Z" fill="#6CE7F8"/>
</g>
</g>
<defs>
<filter id="filter0_b_1801_2309" x="-2.64001" y="-2.64062" width="61.28" height="61.2793" filterUnits="userSpaceOnUse" color-interpolation-filters="sRGB">
<feFlood flood-opacity="0" result="BackgroundImageFix"/>
<feGaussianBlur in="BackgroundImageFix" stdDeviation="3"/>
<feComposite in2="SourceAlpha" operator="in" result="effect1_backgroundBlur_1801_2309"/>
<feBlend mode="normal" in="SourceGraphic" in2="effect1_backgroundBlur_1801_2309" result="shape"/>
</filter>
<radialGradient id="paint0_radial_1801_2309" cx="0" cy="0" r="1" gradientUnits="userSpaceOnUse" gradientTransform="translate(28 27.9994) rotate(90) scale(24.64)">
<stop offset="0.75" stop-color="#0173FE" stop-opacity="0"/>
<stop offset="1" stop-color="#0173FE" stop-opacity="0.7"/>
</radialGradient>
<clipPath id="clip0_1801_2309">
<rect width="32" height="32" fill="white" transform="translate(12 12)"/>
</clipPath>
</defs>
</svg>
